# xmcd CD database file
#
# Track frame offsets:
#	150
#	12915
#	26690
#	35730
#	48490
#	57990
#	71265
#	86405
#	110255
#	123157
#	134557
#	147752
#	160357
#	170812
#
# Disc length: 2525 seconds
#
# Revision: 1
# Processed by: cddbd v1.5.1PL0 Copyright (c) Steve Scherf et al.
# Submitted via: CDex 1.40Release
#
DISCID=c109db0e
DTITLE=Roy Book Binder - The Tampa Sessions '79
DYEAR=1900
DGENRE=Blues
TTITLE0=Keep It Clean
TTITLE1=Every Day of the Week
TTITLE2=Davis Travis Rag
TTITLE3=Church Bell Blues
TTITLE4=Biscuits
TTITLE5=Scandalous and a Shame
TTITLE6=Friend of Mine
TTITLE7=Travelin' Man
TTITLE8=Kentucky Blues
TTITLE9=Hunke Tunke Blues
TTITLE10=Goin' Back to Tampa
TTITLE11=Babe I Want You to Know
TTITLE12=The Cocaine Habit
TTITLE13=Oh GLory How Happy I Am
EXTD=ID3G: 0
EXTT0=
EXTT1=
EXTT2=
EXTT3=
EXTT4=
EXTT5=
EXTT6=
EXTT7=
EXTT8=
EXTT9=
EXTT10=
EXTT11=
EXTT12=
EXTT13=
PLAYORDER=
